<svg xmlns="http://www.w3.org/2000/svg" xmlns:xlink="http://www.w3.org/1999/xlink" viewBox="0 0 206 206"><defs><style>.cls-1{fill:none;stroke-miterlimit:10;stroke-width:3px;stroke:url(#Gradiente_sem_nome_44);}.cls-2{fill:url(#Gradiente_sem_nome_44-2);}.cls-3{fill:#fff;}</style><linearGradient id="Gradiente_sem_nome_44" y1="103" x2="206" y2="103" gradientUnits="userSpaceOnUse"><stop offset="0" stop-color="#ed1c24"/><stop offset="1" stop-color="#f7931e"/></linearGradient><linearGradient id="Gradiente_sem_nome_44-2" x1="1.5" y1="8" x2="204.5" y2="8" xlink:href="#Gradiente_sem_nome_44"/></defs><title>box-3_img-frontend</title><g id="Camada_2" data-name="Camada 2"><g id="Camada_1-2" data-name="Camada 1"><rect class="cls-1" x="1.5" y="1.5" width="203" height="203"/><rect class="cls-2" x="1.5" y="1.5" width="203" height="13"/><path class="cls-3" d="M163,142.8H48.83A6.85,6.85,0,0,1,42,136V58.35a6.85,6.85,0,0,1,6.85-6.85H163a6.86,6.86,0,0,1,6.85,6.85V136A6.86,6.86,0,0,1,163,142.8ZM48.83,56.06a2.3,2.3,0,0,0-2.29,2.29V136a2.29,2.29,0,0,0,2.29,2.28H163a2.28,2.28,0,0,0,2.28-2.28V58.35A2.29,2.29,0,0,0,163,56.06Z"/><path class="cls-3" d="M167.51,131.39H44.26a2.29,2.29,0,0,1,0-4.57H167.51a2.29,2.29,0,1,1,0,4.57Z"/><rect class="cls-3" x="55.67" y="62.91" width="13.69" height="4.56"/><rect class="cls-3" x="62.52" y="72.04" width="6.85" height="4.56"/><rect class="cls-3" x="62.52" y="81.17" width="6.85" height="4.56"/><rect class="cls-3" x="55.67" y="92.58" width="13.69" height="4.56"/><rect class="cls-3" x="62.52" y="101.71" width="6.85" height="4.56"/><rect class="cls-3" x="62.52" y="110.84" width="6.85" height="4.56"/><path class="cls-3" d="M133.28,161.06H78.5a2.29,2.29,0,0,1,0-4.57h54.78a2.29,2.29,0,0,1,0,4.57Z"/><path class="cls-3" d="M121.86,161.06a2.29,2.29,0,0,1-2.21-1.73l-4.56-18.26a2.28,2.28,0,1,1,4.42-1.11l4.57,18.26a2.29,2.29,0,0,1-1.66,2.77A2.68,2.68,0,0,1,121.86,161.06Z"/><path class="cls-3" d="M89.91,161.06a2.59,2.59,0,0,1-.55-.07,2.28,2.28,0,0,1-1.66-2.77L92.26,140a2.28,2.28,0,1,1,4.43,1.11l-4.57,18.26A2.28,2.28,0,0,1,89.91,161.06Z"/><rect class="cls-3" x="73.93" y="60.63" width="4.56" height="59.34"/><path class="cls-3" d="M90.58,78.22l-6.85-6.85a2.28,2.28,0,0,1,0-3.22l6.85-6.85,3.23,3.23-5.24,5.23L93.81,75Z"/><path class="cls-3" d="M90.58,105.61l-6.85-6.85a2.29,2.29,0,0,1,0-3.23l6.85-6.84,3.23,3.23-5.24,5.23,5.24,5.23Z"/><path class="cls-3" d="M116.63,78.22,113.4,75l5.24-5.23-5.24-5.23,3.23-3.23,6.85,6.85a2.28,2.28,0,0,1,0,3.22Z"/><rect class="cls-3" x="96.76" y="67.48" width="13.69" height="4.56"/><rect class="cls-3" x="85.35" y="81.17" width="9.13" height="4.56"/><rect class="cls-3" x="130.99" y="81.17" width="15.98" height="4.56"/><rect class="cls-3" x="103.61" y="81.17" width="18.26" height="4.56"/><rect class="cls-3" x="95.38" y="94.87" width="16.46" height="4.56" transform="translate(-34.7 129.46) rotate(-56.31)"/><rect class="cls-3" x="101.32" y="108.56" width="4.56" height="4.56"/><rect class="cls-3" x="133.28" y="108.56" width="13.69" height="4.56"/><rect class="cls-3" x="110.45" y="108.56" width="18.26" height="4.56"/><rect class="cls-3" x="101.32" y="117.69" width="22.82" height="4.56"/></g></g></svg>