<svg xmlns="http://www.w3.org/2000/svg" xmlns:xlink="http://www.w3.org/1999/xlink" viewBox="0 0 206 206"><defs><style>.cls-1{fill:none;stroke-miterlimit:10;stroke-width:3px;stroke:url(#Gradiente_sem_nome_44);}.cls-2{fill:#fff;}.cls-3{fill:url(#Gradiente_sem_nome_44-2);}</style><linearGradient id="Gradiente_sem_nome_44" y1="103" x2="206" y2="103" gradientUnits="userSpaceOnUse"><stop offset="0" stop-color="#ed1c24"/><stop offset="1" stop-color="#f7931e"/></linearGradient><linearGradient id="Gradiente_sem_nome_44-2" x1="1.5" y1="8" x2="204.5" y2="8" xlink:href="#Gradiente_sem_nome_44"/></defs><title>box-3_img-backend</title><g id="Camada_2" data-name="Camada 2"><g id="Camada_1-2" data-name="Camada 1"><rect class="cls-1" x="1.5" y="1.5" width="203" height="203"/><path class="cls-2" d="M97.19,83.75c-10.78,0-21-1.88-28.64-5.3C60.3,74.79,55.76,69.7,55.76,64.12S60.3,53.46,68.55,49.8c7.69-3.42,17.86-5.3,28.64-5.3s21,1.88,28.63,5.3c8.25,3.66,12.79,8.75,12.79,14.32s-4.54,10.67-12.79,14.33C118.14,81.87,108,83.75,97.19,83.75Zm0-34.89c-22.17,0-37.07,7.89-37.07,15.26,0,3.7,3.72,7.46,10.2,10.35,7.14,3.17,16.68,4.92,26.87,4.92s19.72-1.75,26.86-4.92c6.49-2.89,10.2-6.65,10.2-10.35C134.25,56.75,119.36,48.86,97.19,48.86Z"/><path class="cls-2" d="M97.19,105.55c-10.78,0-21-1.88-28.64-5.3C60.3,96.59,55.76,91.5,55.76,85.93h4.36c0,3.69,3.72,7.46,10.2,10.34,7.14,3.17,16.68,4.92,26.87,4.92s19.72-1.75,26.86-4.92c6.49-2.88,10.2-6.65,10.2-10.34h4.36c0,5.57-4.54,10.66-12.79,14.32C118.14,103.67,108,105.55,97.19,105.55Z"/><path class="cls-2" d="M97.19,127.36c-10.78,0-21-1.89-28.64-5.3-8.25-3.67-12.79-8.76-12.79-14.33h4.36c0,3.69,3.72,7.46,10.2,10.34C77.46,121.25,87,123,97.19,123s19.72-1.74,26.86-4.92c6.49-2.88,10.2-6.65,10.2-10.34h4.36c0,5.57-4.54,10.66-12.79,14.33C118.14,125.47,108,127.36,97.19,127.36Z"/><path class="cls-2" d="M97.19,149.16c-10.78,0-21-1.88-28.64-5.3-8.25-3.66-12.79-8.75-12.79-14.32V64.12h4.36v65.42c0,3.69,3.72,7.46,10.2,10.34,7.14,3.17,16.68,4.92,26.87,4.92a82,82,0,0,0,8.51-.43l.44,4.34A87.63,87.63,0,0,1,97.19,149.16Z"/><rect class="cls-2" x="134.25" y="64.12" width="4.36" height="63.41"/><circle class="cls-2" cx="69.93" cy="87.02" r="3.27"/><circle class="cls-2" cx="69.93" cy="108.82" r="3.27"/><circle class="cls-2" cx="69.93" cy="130.63" r="3.27"/><path class="cls-2" d="M121.17,162.24a8.73,8.73,0,0,1-8.72-8.72h4.36a4.36,4.36,0,1,0,4.36-4.36,8.72,8.72,0,1,1,8.72-8.72h-4.36a4.36,4.36,0,1,0-4.36,4.36,8.72,8.72,0,0,1,0,17.44Z"/><path class="cls-2" d="M143,162.24a8.73,8.73,0,0,1-8.72-8.72V140.44a8.73,8.73,0,0,1,17.45,0v13.08A8.74,8.74,0,0,1,143,162.24Zm0-26.16a4.36,4.36,0,0,0-4.36,4.36v13.08a4.37,4.37,0,0,0,8.73,0V140.44A4.37,4.37,0,0,0,143,136.08Z"/><path class="cls-2" d="M149.52,162.24a2.18,2.18,0,0,1-1.55-.64l-6.54-6.54a2.18,2.18,0,0,1,3.09-3.08l6.54,6.54a2.18,2.18,0,0,1-1.54,3.72Z"/><path class="cls-2" d="M171.32,162.24H158.24a2.18,2.18,0,0,1-2.18-2.18V133.9a2.18,2.18,0,1,1,4.36,0v24h10.9a2.18,2.18,0,0,1,0,4.36Z"/><rect class="cls-3" x="1.5" y="1.5" width="203" height="13"/></g></g></svg>