<svg xmlns="http://www.w3.org/2000/svg" xmlns:xlink="http://www.w3.org/1999/xlink" viewBox="0 0 206 206"><defs><style>.cls-1{fill:none;stroke-miterlimit:10;stroke-width:3px;stroke:url(#Gradiente_sem_nome_44);}.cls-2{fill:url(#Gradiente_sem_nome_44-2);}.cls-3{fill:#fff;}</style><linearGradient id="Gradiente_sem_nome_44" y1="103" x2="206" y2="103" gradientUnits="userSpaceOnUse"><stop offset="0" stop-color="#ed1c24"/><stop offset="1" stop-color="#f7931e"/></linearGradient><linearGradient id="Gradiente_sem_nome_44-2" x1="1.5" y1="8" x2="204.5" y2="8" xlink:href="#Gradiente_sem_nome_44"/></defs><g id="Camada_2" data-name="Camada 2"><g id="Camada_1-2" data-name="Camada 1"><rect class="cls-1" x="1.5" y="1.5" width="203" height="203"/><rect class="cls-2" x="1.5" y="1.5" width="203" height="13"/><path class="cls-3" d="M130.32,168.83H76.61a11.2,11.2,0,0,1-11.19-11.19V54.69A11.2,11.2,0,0,1,76.61,43.5h53.71a11.2,11.2,0,0,1,11.19,11.19v103A11.2,11.2,0,0,1,130.32,168.83ZM76.61,48a6.73,6.73,0,0,0-6.72,6.71v103a6.73,6.73,0,0,0,6.72,6.71h53.71a6.72,6.72,0,0,0,6.71-6.71V54.69A6.72,6.72,0,0,0,130.32,48Z"/><path class="cls-3" d="M110.18,56.93H96.75a2.24,2.24,0,1,1,0-4.48h13.43a2.24,2.24,0,0,1,0,4.48Z"/><path class="cls-3" d="M139.27,65.88H67.66a2.24,2.24,0,1,1,0-4.48h71.61a2.24,2.24,0,0,1,0,4.48Z"/><path class="cls-3" d="M139.27,155.4H67.66a2.24,2.24,0,1,1,0-4.47h71.61a2.24,2.24,0,1,1,0,4.47Z"/><circle class="cls-3" cx="119.13" cy="54.69" r="2.24"/><path class="cls-3" d="M103.46,108.4a2.36,2.36,0,0,1-1-.23L80.08,97a2.25,2.25,0,0,1,0-4l22.38-11.19a2.27,2.27,0,0,1,2,0L126.84,93a2.24,2.24,0,0,1,0,4l-22.38,11.19A2.29,2.29,0,0,1,103.46,108.4ZM86.09,95l17.37,8.69L120.84,95l-17.38-8.68Z"/><path class="cls-3" d="M103.46,135.26a2.23,2.23,0,0,1-1-.24L80.08,123.83a2.22,2.22,0,0,1-1.23-2V95a2.24,2.24,0,0,1,4.47,0v25.48l20.14,10.07,20.15-10.07V95a2.24,2.24,0,0,1,4.47,0v26.86a2.23,2.23,0,0,1-1.24,2L104.46,135A2.17,2.17,0,0,1,103.46,135.26Z"/><path class="cls-3" d="M103.46,135.26a2.23,2.23,0,0,1-2.23-2.24V106.16a2.24,2.24,0,0,1,4.47,0V133A2.24,2.24,0,0,1,103.46,135.26Z"/></g></g></svg>
