<svg xmlns="http://www.w3.org/2000/svg" xmlns:xlink="http://www.w3.org/1999/xlink" viewBox="0 0 98 104"><defs><style>.cls-1,.cls-2,.cls-3,.cls-4,.cls-5,.cls-6,.cls-7,.cls-8{fill:none;stroke-linecap:round;stroke-miterlimit:10;stroke-width:8px;}.cls-1{stroke:#fff;}.cls-2{stroke:url(#Gradiente_sem_nome_44);}.cls-3{stroke:url(#Gradiente_sem_nome_44-2);}.cls-4{stroke:url(#Gradiente_sem_nome_44-3);}.cls-5{stroke:url(#Gradiente_sem_nome_44-4);}.cls-6{stroke:url(#Gradiente_sem_nome_44-5);}.cls-7{stroke:url(#Gradiente_sem_nome_44-6);}.cls-8{stroke:url(#Gradiente_sem_nome_44-7);}</style><linearGradient id="Gradiente_sem_nome_44" x1="82" y1="4" x2="98" y2="4" gradientUnits="userSpaceOnUse"><stop offset="0" stop-color="#ed1c24"/><stop offset="1" stop-color="#f7931e"/></linearGradient><linearGradient id="Gradiente_sem_nome_44-2" x1="0" y1="20" x2="55" y2="20" xlink:href="#Gradiente_sem_nome_44"/><linearGradient id="Gradiente_sem_nome_44-3" x1="60" y1="20" x2="90" y2="20" xlink:href="#Gradiente_sem_nome_44"/><linearGradient id="Gradiente_sem_nome_44-4" x1="32" y1="36" x2="44" y2="36" xlink:href="#Gradiente_sem_nome_44"/><linearGradient id="Gradiente_sem_nome_44-5" x1="52" y1="52" x2="78" y2="52" xlink:href="#Gradiente_sem_nome_44"/><linearGradient id="Gradiente_sem_nome_44-6" x1="62" y1="68" x2="78" y2="68" xlink:href="#Gradiente_sem_nome_44"/><linearGradient id="Gradiente_sem_nome_44-7" x1="31" y1="100" x2="42" y2="100" xlink:href="#Gradiente_sem_nome_44"/></defs><g id="Camada_2" data-name="Camada 2"><g id="Camada_1-2" data-name="Camada 1"><line class="cls-1" x1="4" y1="4" x2="74" y2="4"/><line class="cls-2" x1="86" y1="4" x2="94" y2="4"/><line class="cls-3" x1="4" y1="20" x2="51" y2="20"/><line class="cls-4" x1="64" y1="20" x2="86" y2="20"/><line class="cls-1" x1="4" y1="36" x2="25" y2="36"/><line class="cls-5" x1="36" y1="36" x2="40" y2="36"/><line class="cls-1" x1="4" y1="52" x2="45" y2="52"/><line class="cls-6" x1="56" y1="52" x2="74" y2="52"/><line class="cls-1" x1="4" y1="68" x2="54" y2="68"/><line class="cls-7" x1="66" y1="68" x2="74" y2="68"/><line class="cls-1" x1="4" y1="84" x2="31" y2="84"/><line class="cls-1" x1="4" y1="100" x2="24" y2="100"/><line class="cls-8" x1="35" y1="100" x2="38" y2="100"/></g></g></svg>