<svg xmlns="http://www.w3.org/2000/svg" viewBox="0 0 208.82 246.78"><defs><style>.cls-1{fill:#fff;}</style></defs><g id="Camada_2" data-name="Camada 2"><g id="Camada_1-2" data-name="Camada 1"><path d="M154.24,19H9.49a9.49,9.49,0,0,1,0-19H154.24a9.49,9.49,0,0,1,0,19Z"/><path class="cls-1" d="M199.33,19h-19a9.49,9.49,0,0,1,0-19h19a9.49,9.49,0,0,1,0,19Z"/><path class="cls-1" d="M121,57H9.49a9.49,9.49,0,1,1,0-19H121a9.49,9.49,0,0,1,0,19Z"/><path class="cls-1" d="M199.33,57H147.12a9.49,9.49,0,0,1,0-19h52.21a9.49,9.49,0,0,1,0,19Z"/><path d="M59.32,94.92H9.49a9.5,9.5,0,0,1,0-19H59.32a9.5,9.5,0,0,1,0,19Z"/><path class="cls-1" d="M94.92,94.92H85.43a9.5,9.5,0,1,1,0-19h9.49a9.5,9.5,0,0,1,0,19Z"/><path d="M106.78,132.88H9.49a9.49,9.49,0,1,1,0-19h97.29a9.49,9.49,0,1,1,0,19Z"/><path class="cls-1" d="M175.6,132.88H132.88a9.49,9.49,0,0,1,0-19H175.6a9.49,9.49,0,1,1,0,19Z"/><path d="M128.14,170.85H9.49a9.49,9.49,0,0,1,0-19H128.14a9.49,9.49,0,1,1,0,19Z"/><path class="cls-1" d="M173.22,170.85h-19a9.49,9.49,0,0,1,0-19h19a9.49,9.49,0,1,1,0,19Z"/><path d="M90.17,208.82H9.49a9.5,9.5,0,0,1,0-19H90.17a9.5,9.5,0,0,1,0,19Z"/><path d="M57,246.78H9.49a9.49,9.49,0,1,1,0-19H57a9.49,9.49,0,1,1,0,19Z"/><path class="cls-1" d="M90.17,246.78H83.05a9.49,9.49,0,0,1,0-19h7.12a9.49,9.49,0,0,1,0,19Z"/></g></g></svg>